# AST/ASF file generated using VICON BodyLanguage
# -----------------------------------------------
:version 1.10
:name VICON
:units
  mass 1.0
  length 0.45
  angle deg
:documentation
   .ast/.asf automatically generated from VICON data using
   VICON BodyBuilder and BodyLanguage model FoxedUp or BRILLIANT.MOD
:root
   order TX TY TZ RX RY RZ
   axis XYZ
   position 0 0 0  
   orientation 0 0 0 
:bonedata
  begin
     id 1 
     name lhipjoint
     direction 0.621036 -0.695554 0.361275 
     length 2.46325 
     axis 0 0 0  XYZ
  end
  begin
     id 2 
     name lfemur
     direction 0.34202 -0.939693 0  
     length 6.54784  
     axis 0 0 20  XYZ
    dof rx ry rz
    limits (-160.0 20.0)
           (-70.0 70.0)
           (-60.0 70.0)
  end
  begin
     id 3 
     name ltibia
     direction 0.34202 -0.939693 0   
     length 7.84737   
     axis 0 0 20   XYZ
    dof rx
    limits (-10.0 170.0)
  end
  begin
     id 4 
     name lfoot
     direction 0.0790693 -0.217241 0.97291   
     length 2.59747   
     axis -90 7.62852e-016 20   XYZ
    dof rx rz
    limits (-45.0 90.0)
           (-70.0 20.0)
  end
  begin
     id 5 
     name ltoes
     direction 1.53572e-011 -4.21898e-011 1   
     length 1.29919   
     axis -90 7.62852e-016 20   XYZ
    dof rx
    limits (-90.0 20.0)
  end
  begin
     id 6 
     name rhipjoint
     direction -0.602353 -0.708375 0.367935   
     length 2.41867  
     axis 0 0 0  XYZ 
  end
  begin
     id 7 
     name rfemur
     direction -0.34202 -0.939693 0   
     length 6.92065   
     axis 0 0 -20   XYZ
    dof rx ry rz
    limits (-160.0 20.0)
           (-70.0 70.0)
           (-70.0 60.0)
  end
  begin
     id 8 
     name rtibia
     direction -0.34202 -0.939693 0   
     length 7.88883   
     axis 0 0 -20   XYZ
    dof rx
    limits (-10.0 170.0)
 end
 begin
     id 9 
     name rfoot
     direction -0.0768692 -0.211196 0.974416   
     length 2.43714  
     axis -90 -7.62852e-016 -20   XYZ
    dof rx rz
    limits (-45.0 90.0)
           (-20.0 70.0)
  end
  begin
     id 10 
     name rtoes
     direction -1.53575e-011 -4.21933e-011 1   
     length 1.22113   
     axis -90 -7.62852e-016 -20   XYZ
    dof rx
    limits (-90.0 20.0)
  end
  begin
     id 11 
     name lowerback
     direction 0.0197937 0.98943 -0.143655   
     length 2.16931   
     axis 0 0 0   XYZ
    dof rx ry rz
    limits (-20.0 45.0)
           (-30.0 30.0)
           (-30.0 30.0)
  end
  begin
     id 12 
     name upperback
     direction -0.00183968 0.999975 0.00684288   
     length 2.17221   
     axis 0 0 0   XYZ
    dof rx ry rz
    limits (-20.0 45.0)
           (-30.0 30.0)
           (-30.0 30.0)
  end
  begin
     id 13 
     name thorax
     direction -0.00950244 0.997208 0.0740685   
     length 2.22549   
     axis 0 0 0   XYZ
    dof rx ry rz
    limits (-20.0 45.0)
           (-30.0 30.0)
           (-30.0 30.0)
  end
  begin
     id 14 
     name lowerneck
     direction 0.0218238 0.996215 0.0841425   
     length 1.77269   
     axis 0 0 0   XYZ
    dof rx ry rz
    limits (-20.0 45.0)
           (-30.0 30.0)
           (-30.0 30.0)
  end
  begin
     id 15 
     name upperneck
     direction -0.00430652 0.994214 -0.107332   
     length 1.76534   
     axis 0 0 0   XYZ
    dof rx ry rz
    limits (-20.0 45.0)
           (-30.0 30.0)
           (-30.0 30.0)
  end
  begin
     id 16
     name head
     direction -0.00328946 0.998959 -0.0454998  
     length 1.82634  
     axis 0 0 0   XYZ
    dof rx ry rz
    limits (-20.0 45.0)
           (-30.0 30.0)
           (-30.0 30.0)
  end
  begin
     id 17 
     name lclavicle
     direction 0.970962 0.239191 0.00450212  
     length 3.84872  
     axis 0 0 0   XYZ
    dof ry rz
    limits (-20.0 10.0)
           (0.0 20.0)
  end
  begin
     id 18 
     name lhumerus
     direction 1 -4.48966e-011 5.74696e-028   
     length 5.22771   
     axis 180 -30 -90   XYZ
    dof rx ry rz
    limits (-60.0 90.0)
           (-90.0 90.0)
           (-90.0 90.0)
  end
  begin
     id 19
     name lradius
     direction 1 -4.4896e-011 4.25109e-027   
     length 3.45251   
     axis 180 -30 -90   XYZ
    dof rx
    limits (-10.0 170.0)
  end
  begin
     id 20
     name lwrist
     direction 1 -4.48971e-011 1.15382e-027   
     length 1.72626   
     axis -5.52449e-016 90 90   XYZ
    dof ry
    limits (-180.0 0.0)
 end
  begin
     id 21 
     name lhand
     direction 1 -4.49034e-011 2.30765e-027   
     length 0.552119   
     axis -1.47248e-015 90 90   XYZ
    dof rx rz
    limits (-90.0 90.0)
           (-45.0 45.0)
  end
  begin
     id 22 
     name lfingers
     direction 1 -4.48951e-011 4.61529e-027   
     length 0.445133   
     axis -2.94495e-015 90 90   XYZ
    dof rx
    limits (0.0 90.0)
  end
  begin
     id 23
     name lthumb
     direction 0.707107 -6.34991e-011 0.707107   
     length 0.639124   
     axis -90 45 2.85299e-015   XYZ
    dof rx rz
    limits (-45.0 45.0)
           (-45.0 45.0)
  end
  begin
     id 24 
     name rclavicle
     direction -0.97424 0.222511 -0.0366699   
     length 3.73439  
     axis 0 0 0   XYZ 
    dof ry rz
    limits (-10.0 20.0)
           (-20.0 0.0)
  end
  begin
     id 25 
     name rhumerus
     direction -1 -4.48956e-011 -4.97258e-028  
     length 5.2398   
     axis 180 30 90   XYZ
    dof rx ry rz
    limits (-90.0 60.0)
           (-90.0 90.0)
           (-90.0 90.0)
  end
  begin
     id 26 
     name rradius
     direction -1 -4.4897e-011 -1.72611e-027   
     length 3.48042   
     axis 180 30 90   XYZ
    dof rx
    limits (-10.0 170.0)
  end
  begin
     id 27 
     name rwrist
     direction -1 -4.48976e-011 1.15382e-027   
     length 1.74021   
     axis -5.52449e-016 -90 -90   XYZ
    dof ry
    limits (-180.0 0.0)
  end
  begin
     id 28
     name rhand
     direction -1 -4.48963e-011 2.30765e-027   
     length 0.618713   
     axis -1.47248e-015 -90 -90   XYZ
    dof rx rz
    limits (-90.0 90.0)
           (-45.0 45.0)
  end
  begin
     id 29
     name rfingers
     direction -1 -4.4888e-011 4.61529e-027   
     length 0.498823   
     axis -2.94495e-015 -90 -90   XYZ
    dof rx
    limits (0.0 90.0)
  end
  begin
     id 30
     name rthumb
     direction -0.707107 -6.34968e-011 0.707107   
     length 0.716213   
     axis -90 -45 -2.85299e-015   XYZ
    dof rx rz
    limits (-45.0 45.0)
           (-45.0 45.0)
  end
:hierarchy
  begin
    root lhipjoint rhipjoint lowerback
    lhipjoint lfemur
    lfemur ltibia
    ltibia lfoot
    lfoot ltoes
    rhipjoint rfemur
    rfemur rtibia
    rtibia rfoot
    rfoot rtoes
    lowerback upperback
    upperback thorax
    thorax lowerneck lclavicle rclavicle
    lowerneck upperneck
    upperneck head
    lclavicle lhumerus
    lhumerus lradius
    lradius lwrist
    lwrist lhand lthumb
    lhand lfingers
    rclavicle rhumerus
    rhumerus rradius
    rradius rwrist
    rwrist rhand rthumb
    rhand rfingers
  end

#!OML:ASF G:\JayActor3\Patient Classification 1\Patient 1\Session 5\male.ASF
:FULLY-SPECIFIED
:DEGREES
157
root 51.8501 14.8031 -5.88553 46.3898 -85.574 -21.017
lowerback 29.8767 -1.10756 3.35677
upperback 7.41455 -1.03892 0.0950402
thorax -8.10755 -0.787429 -1.42743
lowerneck -0.11051 -0.397943 1.67044
upperneck -24.2767 -0.896028 1.72083
head -7.41823 -1.12806 0.388383
rclavicle -1.8487e-014 -1.31198e-014
rhumerus -24.7607 6.38834 -89.1714
rradius 57.7475
rwrist -11.659
rhand -14.1418 -6.69273
rfingers 7.12502
rthumb 11.9924 -36.3292
lclavicle -1.8487e-014 -1.31198e-014
lhumerus -23.31 -8.06765 84.0214
lradius 56.8889
lwrist 31.5346
lhand -8.61425 12.6741
lfingers 7.12502
lthumb 17.3177 41.9225
rfemur -67.2306 -1.67785 22.136
rtibia 66.3507
rfoot -23.9973 -7.27514
rtoes -2.41364
lfemur -66.7962 8.53968 -20.1137
ltibia 62.8179
lfoot -16.2581 -2.8244
ltoes -7.27847
158
root 51.8491 14.8186 -5.89073 46.5274 -85.4367 -21.0498
lowerback 29.9633 -1.13825 3.41445
upperback 7.37768 -1.05077 0.125615
thorax -8.19142 -0.794102 -1.42066
lowerneck -0.127361 -0.302403 1.77351
upperneck -24.3358 -0.777935 1.61316
head -7.43612 -1.07293 0.328635
rclavicle -2.68359e-014 7.05686e-015
rhumerus -24.7405 6.0444 -89.0453
rradius 57.2531
rwrist -11.7346
rhand -14.5909 -6.69853
rfingers 7.12502
rthumb 11.5593 -36.3598
lclavicle -2.68359e-014 7.05686e-015
lhumerus -23.3404 -7.71163 83.8668
lradius 56.5488
lwrist 32.1399
lhand -8.8761 12.3436
lfingers 7.12502
lthumb 17.0657 41.614
rfemur -67.1584 -1.5085 22.1129
rtibia 66.1022
rfoot -24.1064 -7.34687
rtoes -2.59095
lfemur -67.1875 8.57955 -20.0232
ltibia 63.099
lfoot -15.4743 -3.12863
ltoes -8.16544
159
root 51.8481 14.8355 -5.89655 46.6628 -85.2936 -21.0834
lowerback 30.0686 -1.16911 3.46895
upperback 7.34026 -1.063 0.15695
thorax -8.28493 -0.801168 -1.41069
lowerneck -0.136114 -0.212229 1.86569
upperneck -24.4108 -0.664838 1.52312
head -7.46031 -1.02142 0.277011
rclavicle -6.16232e-015 4.47266e-015
rhumerus -24.7221 5.71129 -88.9247
rradius 56.753
rwrist -11.7433
rhand -15.0718 -6.8018
rfingers 7.12502
rthumb 11.0955 -36.4885
lclavicle -6.16232e-015 4.47266e-015
lhumerus -23.3753 -7.35509 83.7061
lradius 56.2034
lwrist 32.7247
lhand -9.24377 12.1018
lfingers 7.12502
lthumb 16.7118 41.4024
rfemur -67.0736 -1.33253 22.091
rtibia 65.8365
rfoot -24.189 -7.41132
rtoes -2.67617
lfemur -67.6102 8.63126 -19.9224
ltibia 63.4173
lfoot -14.6053 -3.48718
ltoes -9.01711
160
root 51.8471 14.8532 -5.90287 46.7833 -85.1501 -21.1081
lowerback 30.1943 -1.19856 3.51975
upperback 7.30387 -1.07417 0.186221
thorax -8.387 -0.807989 -1.40091
lowerneck -0.135999 -0.132168 1.94471
upperneck -24.503 -0.563156 1.45307
head -7.49157 -0.976723 0.235083
rclavicle -1.19271e-015 -7.25564e-015
rhumerus -24.7092 5.39018 -88.8119
rradius 56.2546
rwrist -11.6784
rhand -15.5923 -7.02009
rfingers 7.12502
rthumb 10.5935 -36.7331
lclavicle -1.19271e-015 -7.25564e-015
lhumerus -23.415 -7.01601 83.5431
lradius 55.8487
lwrist 33.2717
lhand -9.74634 11.8757
lfingers 7.12502
lthumb 16.2279 41.2165
rfemur -66.9776 -1.15325 22.0688
rtibia 65.5602
rfoot -24.2431 -7.47151
rtoes -2.65902
lfemur -68.0517 8.68679 -19.811
ltibia 63.7613
lfoot -13.6675 -3.87109
ltoes -9.85972
161
root 51.8458 14.8711 -5.90962 46.8317 -85.0087 -21.0672
lowerback 30.3356 -1.22582 3.56578
upperback 7.26988 -1.08412 0.210896
thorax -8.49378 -0.814409 -1.39369
lowerneck -0.120545 -0.0614528 2.00462
upperneck -24.6142 -0.470248 1.40973
head -7.53163 -0.937547 0.20593
rclavicle -1.13307e-014 -1.09332e-014
rhumerus -24.7008 5.0717 -88.7053
rradius 55.7544
rwrist -11.5537
rhand -16.1335 -7.34354
rfingers 7.12502
rthumb 10.0714 -37.0825
lclavicle -1.13307e-014 -1.09332e-014
lhumerus -23.4545 -6.70867 83.3779
lradius 55.4778
lwrist 33.7381
lhand -10.3769 11.6794
lfingers 7.12502
lthumb 15.6207 41.0688
rfemur -66.8764 -0.979428 22.0443
rtibia 65.2808
rfoot -24.2679 -7.52824
rtoes -2.55443
lfemur -68.5031 8.74079 -19.6949
ltibia 64.1207
lfoot -12.6783 -4.26848
ltoes -10.6786
162
root 51.8443 14.8897 -5.91666 46.7464 -84.871 -20.899
lowerback 30.4894 -1.25284 3.60711
upperback 7.23904 -1.09564 0.228642
thorax -8.60314 -0.82167 -1.39075
lowerneck -0.0913259 0.000822352 2.05306
upperneck -24.7417 -0.386042 1.38439
head -7.57951 -0.903704 0.185345
rclavicle -1.03368e-014 3.42904e-014
rhumerus -24.6955 4.75362 -88.6043
rradius 55.2423
rwrist -11.3845
rhand -16.7 -7.63177
rfingers 7.12502
rthumb 9.52481 -37.3965
lclavicle -1.03368e-014 3.42904e-014
lhumerus -23.492 -6.4376 83.2102
lradius 55.0844
lwrist 34.084
lhand -11.1047 11.4962
lfingers 7.12502
lthumb 14.9197 40.9389
rfemur -66.7688 -0.823255 22.016
rtibia 65
rfoot -24.267 -7.57441
rtoes -2.36389
lfemur -68.9499 8.78936 -19.5835
ltibia 64.4765
lfoot -11.6519 -4.66814
ltoes -11.4569
163
root 51.8425 14.9084 -5.92389 46.5283 -84.7419 -20.6018
lowerback 30.6491 -1.27748 3.64056
upperback 7.21019 -1.10715 0.238703
thorax -8.71318 -0.828899 -1.39179
lowerneck -0.0453998 0.0559273 2.08998
upperneck -24.8792 -0.308789 1.37379
head -7.63374 -0.873707 0.17209
rclavicle -2.76311e-014 -1.03368e-014
rhumerus -24.696 4.43693 -88.5089
rradius 54.7225
rwrist -11.1859
rhand -17.2901 -7.8525
rfingers 7.12502
rthumb 8.95538 -37.6424
lclavicle -2.76311e-014 -1.03368e-014
lhumerus -23.5278 -6.2072 83.0407
lradius 54.6638
lwrist 34.2899
lhand -11.9008 11.3444
lfingers 7.12502
lthumb 14.1526 40.8424
rfemur -66.6631 -0.68695 21.982
rtibia 64.7243
rfoot -24.241 -7.60857
rtoes -2.09364
lfemur -69.3861 8.83413 -19.4847
ltibia 64.818
lfoot -10.6066 -5.05821
ltoes -12.196
164
root 51.8406 14.9273 -5.93124 46.1262 -84.6211 -20.1209
lowerback 30.8045 -1.30113 3.66462
upperback 7.18585 -1.12144 0.240795
thorax -8.81613 -0.837215 -1.39543
lowerneck 0.00898002 0.105644 2.12456
upperneck -25.0221 -0.238799 1.36316
head -7.69136 -0.847153 0.15967
rclavicle 2.36554e-014 3.4191e-014
rhumerus -24.6952 4.12527 -88.4191
rradius 54.1945
rwrist -10.9735
rhand -17.8944 -7.96741
rfingers 7.12502
rthumb 8.37221 -37.7815
lclavicle 2.36554e-014 3.4191e-014
lhumerus -23.5552 -6.01304 82.87
lradius 54.2101
lwrist 34.339
lhand -12.717 11.2076
lfingers 7.12502
lthumb 13.366 40.7589
rfemur -66.5637 -0.581975 21.9418
rtibia 64.4557
rfoot -24.1912 -7.62689
rtoes -1.76402
lfemur -69.8057 8.87503 -19.4112
ltibia 65.1314
lfoot -9.56027 -5.43026
ltoes -12.9242
165
root 51.8383 14.9464 -5.93854 45.54 -84.5114 -19.458
lowerback 30.9538 -1.32353 3.67731
upperback 7.16576 -1.13886 0.235454
thorax -8.91153 -0.846711 -1.39982
lowerneck 0.0684505 0.150239 2.15835
upperneck -25.1564 -0.176126 1.34804
head -7.74707 -0.823214 0.146198
rclavicle 5.36719e-015 -6.4605e-015
rhumerus -24.6947 3.82756 -88.3332
rradius 53.6618
rwrist -10.7628
rhand -18.5009 -7.99348
rfingers 7.12502
rthumb 7.78686 -37.8301
lclavicle 5.36719e-015 -6.4605e-015
lhumerus -23.5751 -5.85139 82.6999
lradius 53.7231
lwrist 34.2423
lhand -13.5059 11.0982
lfingers 7.12502
lthumb 12.6055 40.6979
rfemur -66.4687 -0.504166 21.8898
rtibia 64.1982
rfoot -24.123 -7.63554
rtoes -1.3882
lfemur -70.1996 8.91294 -19.3681
ltibia 65.4119
lfoot -8.52848 -5.78197
ltoes -13.6065
166
root 51.8357 14.965 -5.94568 44.7932 -84.4127 -18.6366
lowerback 31.0914 -1.3437 3.67934
upperback 7.15281 -1.15836 0.224054
thorax -8.99326 -0.856856 -1.40435
lowerneck 0.129196 0.188307 2.19698
upperneck -25.2836 -0.124967 1.31845
head -7.80076 -0.803661 0.127695
rclavicle -1.88845e-014 -3.34952e-014
rhumerus -24.6904 3.54916 -88.2495
rradius 53.128
rwrist -10.561
rhand -19.0944 -7.9695
rfingers 7.12502
rthumb 7.21406 -37.8265
lclavicle -1.88845e-014 -3.34952e-014
lhumerus -23.5835 -5.72323 82.5332
lradius 53.2036
lwrist 34.0395
lhand -14.2582 10.9968
lfingers 7.12502
lthumb 11.8802 40.6397
rfemur -66.3807 -0.451741 21.8254
rtibia 63.9555
rfoot -24.0413 -7.63101
rtoes -0.965404
lfemur -70.5665 8.95425 -19.3599
ltibia 65.6565
lfoot -7.52038 -6.11616
ltoes -14.2478
